<svg xmlns="http://www.w3.org/2000/svg" xmlns:xlink="http://www.w3.org/1999/xlink" width="200" height="78.5" viewBox="0 0 200 78.5">
  <defs>
    <clipPath id="clip-path">
      <rect id="Rectangle_18" data-name="Rectangle 18" width="79.007" height="31.236" fill="#121e3c"/>
    </clipPath>
    <clipPath id="clip-path-2">
      <rect id="Rectangle_20" data-name="Rectangle 20" width="79.151" height="31.292" fill="#121e3c"/>
    </clipPath>
  </defs>
  <g id="Group_78" data-name="Group 78" transform="translate(-281 -4036)">
    <text id="More_services_from_nudge:" data-name="More services from nudge:" transform="translate(281 4048)" fill="#121e3c" font-size="16" font-family="BebasNeueBook, Bebas Neue" letter-spacing="0.15em"><tspan x="0" y="0">More services from nudge:</tspan></text>
    <g id="Group_76" data-name="Group 76" transform="translate(281 4074.793)">
      <g id="Group_54" data-name="Group 54" transform="translate(0 0)" clip-path="url(#clip-path)">
        <path id="Path_66" data-name="Path 66" d="M297.778,435.124v5.083h4.228v-1.16h-2.719v-.8h2.4v-1.16h-2.4v-.8h2.646v-1.16Zm-10.028,0v5.083h1.385v-2.828l2.154,2.828h1.283v-5.083h-1.378v2.842l-2.153-2.842Zm-6.715,5.083h1.508v-5.083h-1.508Zm-8.513-5.083v5.083h3.64v-1.262h-2.132v-3.821Zm-10.028,0v5.083h1.385v-2.828l2.154,2.828h1.284v-5.083h-1.378v2.842l-2.154-2.842Zm-7.665,1.218a1.247,1.247,0,0,1,1.2,1.327,1.26,1.26,0,0,1-1.2,1.341,1.293,1.293,0,0,1-1.247-1.341,1.276,1.276,0,0,1,1.247-1.327m-.022-1.262a2.6,2.6,0,1,0,2.77,2.581,2.6,2.6,0,0,0-2.77-2.581" transform="translate(-237.758 -409.036)" fill="#121e3c"/>
        <path id="Path_67" data-name="Path 67" d="M291.133,375.477h5.511v-2.9h-8.7v20.3h8.7v-2.9h-5.511v-5.946h4.38v-2.9h-4.38Zm-15.517,8.991h1.45v3.742c0,1.45-.638,1.972-1.653,1.972s-1.653-.522-1.653-1.972V377.246c0-1.451.638-2,1.653-2s1.653.551,1.653,2v2.175h3.016v-1.972c0-3.248-1.624-5.1-4.757-5.1s-4.757,1.856-4.757,5.1v10.558c0,3.248,1.624,5.1,4.757,5.1s4.757-1.856,4.757-5.1v-6.439h-4.466Zm-17.432-8.991c1.015,0,1.624.522,1.624,1.972v10.558c0,1.45-.609,1.972-1.624,1.972h-1.8v-14.5Zm-4.989,17.4h5.047c3.19,0,4.757-1.769,4.757-5.018V377.594c0-3.248-1.566-5.018-4.757-5.018H253.2Zm-17.49-20.3v15.459c0,3.248,1.624,5.1,4.757,5.1s4.757-1.856,4.757-5.1V372.576H242.2v15.662c0,1.45-.638,1.972-1.653,1.972s-1.653-.522-1.653-1.972V372.576Zm-11.224,20.3h3.277v-20.3h-2.842v12.153l-3.277-12.153h-4v20.3h2.871V378.174Z" transform="translate(-217.637 -372.344)" fill="#121e3c"/>
      </g>
    </g>
    <g id="Group_77" data-name="Group 77" transform="translate(401.849 4074.736)">
      <g id="Group_75" data-name="Group 75" transform="translate(0)" clip-path="url(#clip-path-2)">
        <path id="Path_81" data-name="Path 81" d="M663.231,2409.052v5.092h1.388v-2.833l2.157,2.833h1.286v-5.092h-1.38v2.848l-2.157-2.848Zm-7.678,1.22a1.249,1.249,0,0,1,1.206,1.33,1.262,1.262,0,0,1-1.206,1.344,1.3,1.3,0,0,1-1.25-1.344,1.279,1.279,0,0,1,1.25-1.33m-.022-1.264a2.606,2.606,0,1,0,2.775,2.586,2.6,2.6,0,0,0-2.775-2.586m-9.211,5.136h1.511v-5.092H646.32Zm-9.306-5.092v1.206h1.474v3.886h1.518v-3.886h1.482v-1.206Zm-7.322,3.175.625-1.663.61,1.663Zm1.932,1.918h1.612l-2.1-5.092h-1.554l-2.172,5.092h1.555l.3-.813h2.056Zm-9.349-3.2.872-1.031a2.994,2.994,0,0,0-2.107-.9,2.6,2.6,0,1,0-.051,5.2,3.077,3.077,0,0,0,2.157-.981l-.872-.929a1.843,1.843,0,0,1-1.213.588,1.315,1.315,0,0,1,0-2.622,1.659,1.659,0,0,1,1.213.675m-12.1,1.053v-2.942h-1.511v2.942a2.173,2.173,0,0,0,2.412,2.216,2.147,2.147,0,0,0,2.375-2.216v-2.942h-1.511v2.942a.852.852,0,0,1-.857.952.889.889,0,0,1-.908-.952m-9.051.966h-.763v-2.717h.69a1.235,1.235,0,0,1,1.227,1.366,1.194,1.194,0,0,1-1.155,1.351m-.043-3.908h-2.23v5.092h2.179a2.525,2.525,0,0,0,2.789-2.55,2.493,2.493,0,0,0-2.739-2.542m-11.55,0v5.092h4.235v-1.162h-2.724v-.807h2.4v-1.162h-2.4v-.8H593.7v-1.163Z" transform="translate(-589.383 -2382.917)" fill="#121e3c"/>
        <path id="Path_82" data-name="Path 82" d="M662.821,2353.115h5.521v-2.906h-8.717v20.341h8.717v-2.906h-5.521v-5.957h4.388v-2.906h-4.388Zm-15.546,9.008h1.453v3.748c0,1.453-.639,1.976-1.656,1.976s-1.657-.523-1.657-1.976v-10.984c0-1.453.64-2,1.657-2s1.656.552,1.656,2v2.18h3.022v-1.976c0-3.254-1.627-5.114-4.766-5.114s-4.765,1.86-4.765,5.114v10.577c0,3.254,1.627,5.114,4.765,5.114s4.766-1.86,4.766-5.114v-6.451h-4.475Zm-17.463-9.008c1.017,0,1.627.523,1.627,1.976v10.577c0,1.453-.61,1.976-1.627,1.976h-1.8v-14.528Zm-5,17.434h5.056c3.2,0,4.766-1.773,4.766-5.027v-10.286c0-3.254-1.569-5.027-4.766-5.027h-5.056Zm-17.522-20.341V2365.7c0,3.254,1.627,5.114,4.766,5.114s4.765-1.86,4.765-5.114v-15.488H613.8V2365.9c0,1.453-.64,1.977-1.657,1.977s-1.656-.523-1.656-1.977v-15.691Zm-11.245,20.341h3.284v-20.341h-2.848v12.175l-3.284-12.175h-4.01v20.341h2.876v-14.732Z" transform="translate(-589.191 -2349.977)" fill="#121e3c"/>
      </g>
    </g>
    <line id="Line_1" data-name="Line 1" y2="49" transform="translate(381.5 4065.5)" fill="none" stroke="#121e3c" stroke-width="1"/>
  </g>
</svg>
