<svg xmlns="http://www.w3.org/2000/svg" xmlns:xlink="http://www.w3.org/1999/xlink" width="207.58" height="196.321" viewBox="0 0 207.58 196.321">
  <defs>
    <clipPath id="clip-path">
      <path id="Path_54" data-name="Path 54" d="M0-287.909H207.58V-484.23H0Z" transform="translate(0 484.23)" fill="#c2dbff"/>
    </clipPath>
  </defs>
  <g id="Group_23" data-name="Group 23" clip-path="url(#clip-path)">
    <g id="Group_19" data-name="Group 19" transform="translate(23.576 10.932)">
      <path id="Path_50" data-name="Path 50" d="M-243.668-115.165c-12.06-42.941-36-78.529-84.526-78.529-45.082,0-81.627,35.525-81.627,79.347S-373.276-35-328.193-35c21.084,0,37.913-18.787,55.687-18.7,20.973.1,38.988,27.119,41.6,45.4-.887-29.7-2.647-70.862-12.757-106.859" transform="translate(409.821 193.694)" fill="#c2dbff"/>
    </g>
    <g id="Group_20" data-name="Group 20" transform="translate(0 17.051)">
      <path id="Path_51" data-name="Path 51" d="M-173.614-8.441C-224.748-31.949-310.39,20.28-288.484,80.769c9.692,26.762,39.391,49.951,66.256,57.713,32.937,9.516,65.514-8.945,91.673-27.124,4.883-3.394-2.279-6.478-5.828-4.011-24.5,17.028-54.7,34.542-85.317,23.719-21.345-7.545-44.06-25.206-54.717-45.329-29.16-55.065,47.971-111.131,97.731-88.254,3.662,1.683,10.142-3.592,5.072-5.923" transform="translate(291.998 14.196)" fill="#c2dbff"/>
    </g>
    <g id="Group_21" data-name="Group 21" transform="translate(4.69 0)">
      <path id="Path_52" data-name="Path 52" d="M-73.059-206.534c-41.529-30.4-67.129-109.79-3.592-132.57,58.4-20.938,116.575,25.63,121.841,83.885.145,1.6,9,0,8.786-2.354-5.83-64.488-70.005-104.589-130.938-84.651-67.9,22.219-52.836,103.2-4.377,138.677,1.952,1.429,9.524-2.076,8.28-2.987" transform="translate(122.878 347.367)" fill="#c2dbff"/>
    </g>
    <g id="Group_22" data-name="Group 22" transform="translate(34.214 2.342)">
      <path id="Path_53" data-name="Path 53" d="M-13.065-77.744C-1.777-142,83.083-132.868,117.438-94.106c33.9,38.247,23.413,91.5,21.429,138.3-.183,4.306,8.712,2.873,8.868-.793,1.335-31.506,7.382-66.83.228-97.889-6.24-27.088-24.351-51.183-48.854-64.353-43.247-23.246-111.2-14.131-121.041,41.886-.722,4.112,8.223,2.874,8.868-.793" transform="translate(21.974 130.757)" fill="#c2dbff"/>
    </g>
  </g>
</svg>
