<svg xmlns="http://www.w3.org/2000/svg" xmlns:xlink="http://www.w3.org/1999/xlink" width="533.94" height="504.98" viewBox="0 0 533.94 504.98">
  <defs>
    <clipPath id="clip-path">
      <path id="Path_54" data-name="Path 54" d="M0,20.75H533.94V-484.23H0Z" transform="translate(0 484.23)" fill="#fff"/>
    </clipPath>
  </defs>
  <g id="Group_23" data-name="Group 23" clip-path="url(#clip-path)">
    <g id="Group_19" data-name="Group 19" transform="translate(60.642 28.12)">
      <path id="Path_50" data-name="Path 50" d="M17.561,8.3C-13.46-102.154-75.047-193.694-199.859-193.694c-115.96,0-209.962,91.379-209.962,204.1s94,204.1,209.963,204.1c54.234,0,97.521-48.325,143.239-48.108,53.947.257,100.286,69.755,106.993,116.768C48.092,206.778,43.566,100.893,17.561,8.3" transform="translate(409.821 193.694)" fill="#fff"/>
    </g>
    <g id="Group_20" data-name="Group 20" transform="translate(0 43.859)">
      <path id="Path_51" data-name="Path 51" d="M12.512.608C-119.016-59.861-339.306,74.484-282.96,230.074c24.929,68.838,101.322,128.484,170.425,148.45,84.721,24.478,168.516-23.007,235.8-69.769,12.561-8.73-5.861-16.663-14.99-10.318-63.026,43.8-140.7,88.85-219.452,61.01-54.9-19.409-113.333-64.835-140.743-116.6C-326.925,101.212-128.527-43-.533,15.843,8.888,20.173,25.554,6.6,12.512.608" transform="translate(291.998 14.196)" fill="#fff"/>
    </g>
    <g id="Group_21" data-name="Group 21" transform="translate(12.063 0.001)">
      <path id="Path_52" data-name="Path 52" d="M5.265,14.885c-106.822-78.2-172.67-282.4-9.239-341,150.215-53.858,299.856,65.925,313.4,215.77.373,4.124,23.147,0,22.6-6.055-15-165.876-180.069-269.025-336.8-217.741-174.663,57.151-135.9,265.455-11.26,356.707,5.021,3.676,24.5-5.339,21.3-7.683" transform="translate(122.878 347.367)" fill="#fff"/>
    </g>
    <g id="Group_22" data-name="Group 22" transform="translate(88.005 6.025)">
      <path id="Path_53" data-name="Path 53" d="M.942,5.6C29.977-159.678,248.255-136.186,336.623-36.482c87.194,98.378,60.223,235.351,55.12,355.749-.47,11.076,22.409,7.39,22.809-2.041,3.434-81.04,18.989-171.9.586-251.791C399.089-4.242,352.5-66.218,289.475-100.1,178.234-159.888,3.444-136.443-21.868,7.644-23.726,18.222-.715,15.037.942,5.6" transform="translate(21.974 130.757)" fill="#fff"/>
    </g>
  </g>
</svg>
