<?xml version="1.0" standalone="no"?>
<!DOCTYPE svg PUBLIC "-//W3C//DTD SVG 20010904//EN"
 "http://www.w3.org/TR/2001/REC-SVG-20010904/DTD/svg10.dtd">
<svg version="1.0" xmlns="http://www.w3.org/2000/svg"
 width="832.000000pt" height="832.000000pt" viewBox="0 0 832.000000 832.000000"
 preserveAspectRatio="xMidYMid meet">
<metadata>
Created by potrace 1.11, written by Peter Selinger 2001-2013
</metadata>
<g transform="translate(0.000000,832.000000) scale(0.100000,-0.100000)"
fill="#000000" stroke="none">
<path d="M3058 8085 c-2 -2 -35 -6 -73 -10 -39 -3 -92 -7 -120 -10 -27 -2 -59
-6 -71 -9 -11 -2 -46 -7 -78 -10 -66 -7 -348 -64 -383 -77 -12 -5 -23 -7 -23
-4 0 2 -18 -2 -40 -10 -22 -8 -41 -14 -43 -13 -1 0 -29 -7 -62 -17 -33 -9 -67
-19 -75 -20 -8 -2 -62 -20 -120 -40 -94 -33 -128 -46 -195 -75 -49 -21 -116
-49 -120 -50 -39 -9 -406 -221 -451 -261 -11 -11 -25 -19 -31 -19 -6 0 -13 -3
-15 -7 -1 -5 -37 -35 -78 -68 -88 -70 -78 -61 -173 -152 -41 -40 -99 -101
-129 -134 -29 -34 -58 -67 -63 -73 -23 -24 -115 -155 -160 -225 -44 -70 -122
-219 -160 -306 -9 -22 -21 -49 -26 -60 -21 -45 -89 -258 -84 -263 3 -3 1 -10
-4 -16 -5 -6 -18 -54 -29 -106 -24 -110 -28 -138 -47 -280 -7 -49 -16 -252
-18 -396 -1 -76 -6 -126 -14 -135 -29 -35 -117 -335 -139 -474 -2 -16 -7 -39
-9 -51 -13 -61 -20 -178 -20 -339 1 -202 9 -295 39 -425 3 -14 8 -36 11 -50 2
-14 7 -38 11 -55 6 -28 30 -111 59 -200 22 -66 76 -199 87 -212 6 -7 8 -13 4
-13 -21 0 215 -409 297 -515 4 -5 33 -44 64 -85 165 -219 422 -487 643 -669
36 -30 67 -57 70 -60 3 -4 57 -45 120 -92 133 -99 369 -257 460 -306 14 -8 39
-23 55 -33 50 -31 406 -206 470 -230 33 -13 65 -26 70 -30 6 -4 28 -13 50 -19
22 -7 50 -17 63 -22 50 -20 69 -27 112 -40 25 -7 50 -15 55 -18 6 -3 19 -7 30
-8 11 -2 32 -8 46 -14 15 -6 37 -12 50 -14 13 -2 56 -11 94 -20 39 -9 77 -18
85 -19 8 -1 35 -5 60 -9 74 -12 111 -17 195 -24 196 -17 543 -3 700 27 28 5
67 12 89 16 50 7 74 12 94 18 9 3 28 7 42 10 14 2 45 9 70 16 59 16 76 19 130
26 25 3 65 10 90 16 25 5 54 11 65 14 30 5 172 50 235 72 155 57 236 94 485
220 207 104 464 232 525 259 51 24 237 93 260 98 8 2 44 11 80 20 90 23 148
30 265 30 143 0 261 -18 345 -52 8 -4 17 -7 20 -7 49 -10 279 -131 355 -188
110 -82 244 -205 337 -310 35 -39 68 -76 74 -82 34 -36 224 -311 224 -325 0
-5 7 -14 16 -21 8 -7 14 -23 13 -34 -5 -67 10 -99 56 -124 27 -14 72 -106 130
-262 15 -41 31 -84 36 -95 5 -11 22 -73 38 -139 17 -65 33 -121 36 -125 4 -3
4 5 1 19 -3 14 -8 113 -11 220 -3 107 -7 241 -9 297 -5 99 -4 102 19 117 42
28 57 62 60 134 3 68 14 259 20 342 2 25 6 99 10 165 4 66 9 129 11 139 2 10
6 62 9 115 3 53 8 114 11 136 3 22 7 76 10 120 2 44 7 107 9 140 3 33 7 94 10
135 3 41 7 104 10 140 11 139 23 325 32 497 8 162 9 924 0 1054 -6 104 -13
184 -23 264 -2 22 -6 63 -9 90 -8 85 -18 154 -45 305 -32 177 -56 281 -95 420
-15 52 -28 100 -29 105 -2 6 -6 17 -9 25 -3 8 -15 44 -27 80 -12 36 -25 74
-29 85 -5 11 -28 67 -52 125 -24 58 -44 107 -44 110 -2 9 -104 213 -148 295
-201 371 -489 737 -819 1040 -100 91 -215 185 -227 185 -6 0 -11 3 -11 8 0 7
-99 83 -155 118 -16 10 -32 21 -35 24 -8 9 -106 71 -201 128 -115 69 -341 181
-464 231 -55 22 -113 45 -130 52 -16 7 -34 13 -40 15 -5 1 -57 19 -115 38 -58
20 -106 36 -107 36 -2 0 -4 0 -5 1 -2 0 -10 2 -18 4 -8 2 -49 13 -90 25 -41
12 -79 23 -85 24 -14 4 -76 17 -100 21 -11 2 -20 4 -20 5 0 2 -30 8 -65 14
-14 2 -63 11 -110 19 -105 19 -151 26 -215 32 -28 2 -50 5 -50 6 0 7 -255 22
-405 24 -85 1 -171 5 -190 10 -19 4 -44 9 -55 10 -11 1 -33 4 -50 8 -40 9 -81
16 -135 23 -25 3 -56 7 -70 10 -14 2 -47 6 -75 9 -27 3 -75 8 -105 11 -59 7
-587 14 -592 9z m372 -130 c63 -4 121 -8 128 -8 6 0 12 -4 12 -9 0 -4 -6 -8
-12 -9 -7 0 -20 -2 -28 -4 -19 -5 -45 -10 -95 -20 -22 -5 -42 -9 -45 -10 -19
-6 -59 -17 -71 -19 -111 -21 -389 -123 -564 -207 -169 -81 -408 -229 -491
-304 -6 -5 -26 -22 -45 -37 -81 -63 -181 -160 -259 -248 -101 -116 -115 -128
-190 -168 -41 -22 -97 -53 -125 -71 -27 -17 -60 -35 -73 -41 -12 -5 -32 -19
-44 -30 -12 -11 -26 -20 -31 -20 -21 0 -276 -186 -422 -308 -111 -93 -331
-309 -405 -399 -30 -36 -60 -71 -65 -77 -6 -6 -26 -31 -44 -56 -19 -25 -38
-49 -42 -53 -4 -5 -5 6 -3 25 2 18 6 53 8 78 9 82 31 200 51 280 18 68 37 137
40 148 3 7 4 14 5 17 0 3 7 19 15 35 8 16 15 31 14 32 0 2 4 16 10 31 6 16 11
30 11 32 0 29 198 385 230 415 3 3 21 25 40 50 188 246 465 467 780 622 140
68 303 136 370 154 8 2 47 14 85 27 39 13 113 34 165 47 52 12 102 25 110 28
21 7 19 7 75 17 28 4 55 9 60 11 6 1 27 5 48 8 20 3 54 9 75 12 89 14 164 22
297 30 61 3 111 7 112 8 4 3 208 -3 313 -9z m935 -215 c0 -1 16 -3 35 -4 33
-3 54 -10 157 -57 24 -11 54 -24 68 -29 14 -5 25 -14 25 -20 0 -6 -3 -9 -8 -6
-43 26 -713 28 -852 1 -14 -2 -45 -7 -70 -10 -25 -3 -52 -7 -60 -9 -8 -1 -33
-6 -55 -10 -22 -4 -61 -12 -86 -17 -26 -6 -53 -12 -60 -13 -70 -14 -90 -20
-95 -27 -3 -5 -9 -7 -14 -4 -4 3 -52 -9 -106 -26 -54 -17 -102 -32 -108 -34
-6 -1 -20 -6 -31 -10 -11 -4 -64 -25 -117 -46 -114 -44 -281 -120 -288 -131
-3 -4 -15 -9 -25 -11 -11 -2 -27 -7 -35 -10 -24 -9 -90 -29 -103 -31 -7 -1
-16 -4 -22 -7 -40 -23 -46 -16 -13 16 20 19 39 35 43 35 3 0 11 4 18 10 52 43
84 64 169 114 53 31 112 63 130 71 18 9 40 19 48 24 45 25 225 98 258 105 9 1
26 6 37 10 48 18 72 26 95 31 14 2 60 13 103 24 43 11 122 27 175 36 53 9 107
18 120 20 13 2 65 7 115 11 51 3 93 8 95 9 4 3 457 -1 457 -5z m1078 -229 c92
-32 207 -78 282 -112 28 -13 52 -24 55 -24 11 -2 227 -110 260 -131 19 -11 55
-32 80 -45 160 -88 430 -279 575 -409 141 -126 374 -379 433 -470 9 -14 22
-30 28 -37 6 -6 38 -51 70 -100 32 -48 62 -89 67 -91 4 -2 7 -9 7 -16 0 -7 8
-21 18 -32 9 -11 25 -36 35 -55 41 -75 52 -94 60 -100 5 -3 9 -10 9 -15 1 -14
11 -38 18 -44 6 -5 94 -180 95 -190 1 -3 8 -21 17 -40 41 -90 61 -136 63 -145
1 -5 5 -19 9 -30 5 -11 15 -38 23 -60 8 -22 28 -80 45 -130 25 -77 37 -118 63
-215 8 -29 37 -145 40 -163 2 -10 7 -28 11 -40 4 -12 8 -31 9 -42 1 -11 5 -31
8 -45 9 -32 17 -75 23 -120 2 -19 6 -46 9 -60 3 -14 7 -38 9 -55 3 -16 7 -47
10 -67 10 -67 15 -102 21 -163 4 -33 9 -78 11 -100 2 -22 6 -67 9 -100 2 -33
6 -94 10 -135 3 -41 8 -145 10 -230 3 -85 7 -165 9 -177 3 -13 0 -23 -5 -23
-6 0 -6 -7 0 -19 6 -10 7 -21 4 -25 -3 -3 -5 -23 -4 -43 5 -102 6 -153 1 -153
-3 0 -5 -72 -5 -159 0 -155 -10 -256 -16 -166 -3 43 -6 67 -9 75 -1 3 -4 19
-6 35 -3 34 -10 84 -19 135 -3 19 -8 51 -10 70 -2 19 -6 46 -10 60 -3 14 -8
41 -10 60 -3 19 -8 46 -11 60 -3 13 -7 40 -10 60 -2 19 -8 49 -13 65 -4 17 -7
38 -5 48 1 9 -2 17 -7 17 -6 0 -8 3 -6 8 5 7 -31 188 -89 447 -2 11 -6 29 -8
40 -18 83 -110 429 -124 465 -3 8 -7 22 -8 30 -7 46 -178 546 -213 625 -5 11
-19 45 -31 75 -11 30 -25 64 -30 75 -31 70 -66 147 -88 195 -14 30 -26 57 -27
60 -3 15 -162 314 -192 362 -13 21 -23 40 -23 43 0 3 -5 11 -10 18 -9 10 -167
247 -205 306 -5 9 -12 18 -15 21 -3 3 -30 36 -60 75 -139 179 -325 372 -485
505 -55 45 -110 91 -123 101 -12 11 -25 19 -28 19 -2 0 -28 17 -57 39 -29 21
-110 73 -181 115 -115 69 -182 112 -196 126 -5 5 -100 68 -175 116 -16 10 -46
27 -65 36 -54 26 -19 21 73 -11z m-3927 -1158 c-24 -60 -46 -120 -49 -135 -4
-15 -21 -51 -39 -80 -78 -132 -137 -238 -167 -301 -48 -102 -87 -193 -90 -210
0 -4 -7 -20 -14 -35 -21 -41 -102 -286 -112 -339 -2 -10 -4 -18 -5 -18 -2 0
-2 1 -33 -155 -14 -69 -29 -152 -33 -185 -3 -33 -8 -69 -10 -80 -22 -113 -21
-571 0 -685 3 -14 7 -50 11 -80 3 -30 10 -80 15 -110 6 -30 13 -68 16 -85 l5
-30 -18 30 c-39 63 -154 307 -208 440 -79 195 -195 574 -210 685 -2 14 -4 25
-5 25 -1 0 -3 9 -5 20 -1 11 -5 34 -9 50 -4 17 -9 58 -12 91 -6 58 -4 67 35
148 81 165 215 389 284 471 9 11 30 38 47 60 113 148 277 318 450 464 41 35
77 68 78 72 2 5 9 9 15 9 7 1 30 16 52 35 22 19 43 35 46 35 4 0 -12 -48 -35
-107z m-1128 -2035 c44 -155 231 -559 339 -730 12 -21 23 -40 23 -43 0 -4 18
-33 40 -65 22 -32 40 -63 40 -67 0 -4 14 -24 30 -43 16 -19 30 -38 30 -42 0
-6 108 -156 143 -198 7 -8 26 -33 42 -55 17 -21 37 -46 45 -55 8 -9 34 -39 57
-66 119 -141 287 -310 448 -449 38 -33 81 -73 94 -90 39 -47 302 -306 350
-344 24 -19 49 -40 55 -45 29 -27 177 -136 185 -136 5 0 11 -3 13 -7 4 -10
126 -93 136 -93 5 0 17 -8 28 -18 24 -20 63 -41 244 -133 74 -38 131 -69 127
-69 -15 0 -187 67 -272 106 -22 10 -42 19 -45 19 -9 1 -252 123 -320 161 -139
77 -394 239 -434 276 -11 10 -23 18 -27 18 -4 0 -14 6 -21 13 -7 7 -53 44
-103 82 -49 38 -92 71 -95 74 -3 3 -34 31 -70 61 -364 306 -687 704 -868 1070
-57 115 -71 146 -110 250 -23 61 -67 214 -78 270 -3 16 -15 75 -20 100 -4 17
-12 96 -20 190 -2 36 -7 71 -9 78 -2 6 0 12 5 12 5 0 13 -15 18 -32z"/>
</g>
</svg>
